PathFileType	4	(X/Y/Z)	2_2_31_p1_0-231_filt_butterworth.trc
DataRate	CameraRate	NumFrames	NumMarkers	Units	OrigDataRate	OrigDataStartFrame	OrigNumFrames
59.0	59.0	4	27	m	59.0	0	231
Frame#	Time	RHip			RKnee			RAnkle			RBigToe			RSmallToe			RHeel			LHip			LKnee			LAnkle			LBigToe			LSmallToe			LHeel			Neck			Head			Nose			RShoulder			RElbow			RWrist			RThumb			RIndex			RPinky			LShoulder			LElbow			LWrist			LThumb			LIndex			LPinky			
		X1	Y1	Z1	X2	Y2	Z2	X3	Y3	Z3	X4	Y4	Z4	X5	Y5	Z5	X6	Y6	Z6	X7	Y7	Z7	X8	Y8	Z8	X9	Y9	Z9	X10	Y10	Z10	X11	Y11	Z11	X12	Y12	Z12	X13	Y13	Z13	X14	Y14	Z14	X15	Y15	Z15	X16	Y16	Z16	X17	Y17	Z17	X18	Y18	Z18	X19	Y19	Z19	X20	Y20	Z20	X21	Y21	Z21	X22	Y22	Z22	X23	Y23	Z23	X24	Y24	Z24	X25	Y25	Z25	X26	Y26	Z26	X27	Y27	Z27	
0	0.0	0.320642365364181	0.534954524925142	0.9633665868815466	0.31236580185620044	0.7050968579003465	1.4162584635050945	0.2885508827903669	0.8981206885155792	1.8123027103499878	0.30327825771874956	0.6706964473626313	1.8751436710014073	0.3655035683819615	0.7483205112314638	1.8889984909736874	0.2796927243344164	0.9364223077128742	1.8534276456330563	0.09029363067691586	0.5092212348307662	0.9598127953088013	0.07727508559658264	0.6936417151956352	1.4018618256104565	0.06401998907954606	0.858751739085231	1.807836823964236	0.10134832614665343	0.7202031901268234	1.8825739887264792	0.022650393047429638	0.7254489258239135	1.8646621068131644	0.07354529986865593	0.9759041606015372	1.8810962208137543	0.22008554769434333	0.3085665581028109	0.27817102477765954	0.23345189270904534	0.15922636470206297	0.044211988025261766	0.23429000558144636	0.1413341698740603	0.19675013680425893	0.3977778357179973	0.37493800316346637	0.3552503730465477	0.4799593935334685	0.44578291385265395	0.6447442044536009	0.3521234360120461	0.3656360024569289	0.8388418665366191	0.23468132976328057	0.2856587954507029	0.834706852359631	0.20495954667581806	0.3089717369595872	0.8833758798784499	0.2045364264015288	0.35495849395377804	0.9246566985978147	0.06398043510786557	0.36446249292376776	0.355262260324339	-0.032941819719447894	0.4476239784378959	0.63088906397148	0.0982334020377401	0.33486788550810176	0.8270598273215769	0.19105929255874998	0.3134677501974534	0.831996278775796	0.2142807009719351	0.29055210235052203	0.8781812441038238	0.21797726270463746	0.32812572297192816	0.9172782005202793
1	0.0169491525423728	0.3208496898486309	0.5358474057171028	0.9647502777820071	0.31281274623673255	0.7069631046359842	1.4190827785543887	0.2885407410173103	0.8981957944105486	1.8123705687064264	0.30320522011816053	0.6704802537064594	1.8748449511717153	0.36604245924109313	0.7513996830796971	1.8896771980264857	0.27882627016040307	0.9356409518683526	1.8575969492666002	0.092731379795861	0.5104440290023564	0.9597356145770582	0.07880845039936958	0.6900814048929556	1.4011179808347478	0.0637359692041577	0.8592596464354159	1.8067214983547473	0.10180164148895941	0.71989516351	1.8825100578873148	0.02301883159268999	0.7256954660797035	1.864620844028072	0.07344623104573514	0.9759585573531608	1.88112998168086	0.22009516586388	0.30864406482171086	0.2782113670576225	0.2341657686619368	0.16292368477925792	0.043003578624132996	0.23428511128418283	0.14752396222217135	0.19633971724959937	0.3977652568360036	0.37502835452169764	0.35532064652767054	0.4801533669054312	0.44551743355245577	0.645792215701291	0.35049348634313326	0.35848419985166996	0.8388794631059643	0.23320302433762066	0.28924545420132874	0.8332243297545336	0.20140826956804664	0.31701357420699994	0.8833508279672325	0.20412413872290033	0.3538909353365318	0.9236448687025344	0.06394885123570465	0.3645153163060864	0.3552907895457209	-0.03288793132133587	0.4475507618673279	0.6309460785550229	0.0982421330663322	0.33475953588197693	0.8269489458464947	0.19051358505162194	0.3149368503326325	0.8319869677095886	0.21569551546914956	0.2985103752212292	0.8799555638079631	0.2160488578566484	0.333000807227262	0.9169375187171661
2	0.0338983050847457	0.32106253313885913	0.5366900443256651	0.9660589334072875	0.3130772878409246	0.708062312648141	1.4207091578917461	0.288540481689579	0.8982590493012214	1.812413123099548	0.3036065236327801	0.6704738666229878	1.874697502288854	0.3664598036645014	0.7516787180009402	1.889640189512285	0.27863821161073193	0.935689306446831	1.8591046375849538	0.09417997717025653	0.5111762620537343	0.959682872338093	0.07877807183118406	0.6901814575917534	1.401088577323394	0.06352593942110407	0.85961043258362	1.8066733059564561	0.10204697923441705	0.7199491166485084	1.8825905578003765	0.02398427247721603	0.7261351113072522	1.8645917768840081	0.07336859314278842	0.9759820821248424	1.8811467086089841	0.22010982821243164	0.3086859096989431	0.27824296157285583	0.2348604311568247	0.1664632069151943	0.04184745353813757	0.23451085276822728	0.15132824218001714	0.19630063439633272	0.3977586079621447	0.3750675990208607	0.35535918743475303	0.48025894324739454	0.4453738353220351	0.646233144428247	0.3495123484233943	0.3542663092877013	0.8389722579659182	0.23139043278183535	0.29317248914940863	0.833235668711067	0.19873443667638224	0.3234624925220781	0.8835052116801387	0.20383387514223028	0.3533449457587739	0.9234707116029458	0.0639641443053067	0.364493435301966	0.35531162779678527	-0.03286335608299887	0.44748573716964435	0.6309869451832729	0.09825861301231087	0.33496709578383305	0.8272492087709737	0.1891884389576039	0.31800730011107314	0.8320664924003356	0.21653475937589536	0.3033362437978054	0.8809830451216036	0.21461080205401198	0.3365239896266949	0.9165526796336518
3	0.0508474576271186	0.3212282308333208	0.5372395183247296	0.9669721219670399	0.3131488336760516	0.7083437257697799	1.4210793942725606	0.28854989819556043	0.8983038494976208	1.8124209493234924	0.3046663335184205	0.6709039522876954	1.8746847520130214	0.367222957411886	0.7504387311806644	1.8892320392349498	0.27922450134942894	0.9373866363210901	1.8581037246802552	0.09457200589441246	0.5113875220684478	0.9596489117904997	0.0778717865755632	0.6923233938994461	1.4014780182393878	0.06339796203358176	0.8598510986665676	1.8074084893985716	0.10196305698339451	0.7200651710500646	1.8827346652246555	0.025390158944250063	0.7266337793361031	1.8645750148716562	0.07332118435201757	0.9760146964028844	1.881164292757735	0.22012385814009977	0.30870594329624323	0.27826143987050433	0.23534390197724372	0.168914333602588	0.04102683541576565	0.2350143393990795	0.15255533140152544	0.19631098084117352	0.3977608365436283	0.3750499865060989	0.3553556646566046	0.48024855015695156	0.4453407626846032	0.6458831221288625	0.3492056080626112	0.3532277873782643	0.8393853921696562	0.2298146850481653	0.29644441020109613	0.8347191964888274	0.1972347389586945	0.3277753696183938	0.8840794807611784	0.20374870817787544	0.35316950590734353	0.9238712557842312	0.06403994424837696	0.364372638346221	0.3553305847896482	-0.032863419519406065	0.4474144289511662	0.6310177100259963	0.09830550380934899	0.33561337355786985	0.8281858867548859	0.18732890448979078	0.32214577123682087	0.8322079900655177	0.21675743068191594	0.3048043710874935	0.881232722162347	0.21361102982472083	0.33930452462979166	0.9171396507818699
